<?xml version="1.0" encoding="UTF-8"?>
<svg width="24px" height="24px" viewBox="0 0 24 24" version="1.1" xmlns="http://www.w3.org/2000/svg" xmlns:xlink="http://www.w3.org/1999/xlink">
    <title>bi-arrow-right</title>
    <g id="서비스소개" stroke="none" stroke-width="1" fill="none" fill-rule="evenodd">
        <g id="서비스소개_00" transform="translate(-385.000000, -4187.000000)" fill-rule="nonzero">
            <g id="바로가기" transform="translate(0.000000, 3855.000000)">
                <g id="미니인턴-리스트" transform="translate(238.000000, 311.000000)">
                    <g id="bi-arrow-right" transform="translate(147.000000, 21.000000)">
                        <g id="Icon-Group" fill="#17A1FF" transform="translate(3.000000, 6.000000)">
                            <path d="M12.219,0.969 C12.3597064,0.827937449 12.5507591,0.748659324 12.75,0.748659324 C12.9492409,0.748659324 13.1402936,0.827937449 13.281,0.969 L17.781,5.469 C17.9220626,5.60970639 18.0013407,5.80075911 18.0013407,6 C18.0013407,6.19924089 17.9220626,6.39029361 17.781,6.531 L13.281,11.031 C12.9877368,11.3242632 12.5122632,11.3242632 12.219,11.031 C11.9257368,10.7377368 11.9257368,10.2622632 12.219,9.969 L16.1895,6 L12.219,2.031 C12.0779374,1.89029361 11.9986593,1.69924089 11.9986593,1.5 C11.9986593,1.30075911 12.0779374,1.10970639 12.219,0.969 L12.219,0.969 Z" id="Icon-Path"></path>
                            <path d="M0,6 C0,5.58578644 0.335786438,5.25 0.75,5.25 L16.5,5.25 C16.9142136,5.25 17.25,5.58578644 17.25,6 C17.25,6.41421356 16.9142136,6.75 16.5,6.75 L0.75,6.75 C0.335786438,6.75 0,6.41421356 0,6 Z" id="Icon-Path"></path>
                        </g>
                        <rect id="ViewBox" x="0" y="0" width="24" height="24"></rect>
                    </g>
                </g>
            </g>
        </g>
    </g>
</svg>